<?xml version="1.0" standalone="no"?>
<!DOCTYPE svg PUBLIC "-//W3C//DTD SVG 20010904//EN"
 "http://www.w3.org/TR/2001/REC-SVG-20010904/DTD/svg10.dtd">
<svg version="1.0" xmlns="http://www.w3.org/2000/svg"
 width="138.000000pt" height="132.000000pt" viewBox="0 0 138.000000 132.000000"
 preserveAspectRatio="xMidYMid meet">

<g transform="translate(0.000000,132.000000) scale(0.100000,-0.100000)"
fill="#000000" stroke="none">
<path d="M735 1167 c-19 -19 -38 -52 -45 -78 -23 -83 5 -225 49 -249 71 -38
173 34 202 143 27 102 -46 217 -139 217 -25 0 -43 -9 -67 -33z"/>
<path d="M413 1173 c-12 -2 -34 -18 -48 -34 -44 -53 -29 -139 36 -213 75 -85
161 -109 200 -56 29 39 43 135 30 196 -21 93 -97 130 -218 107z"/>
<path d="M253 893 c-12 -2 -34 -18 -48 -34 -22 -26 -25 -40 -25 -102 0 -94 25
-148 86 -183 43 -25 73 -28 115 -10 17 7 38 -36 134 -271 21 -51 44 -98 51
-104 23 -19 48 6 80 82 17 40 35 74 40 76 5 1 23 -30 40 -69 51 -120 77 -118
131 8 131 303 126 294 155 294 16 0 41 12 59 28 28 25 32 35 36 99 9 113 -25
177 -99 189 -29 5 -41 1 -71 -26 -20 -17 -52 -53 -71 -79 l-34 -46 -177 1
-176 1 -21 42 c-28 57 -82 91 -168 105 -8 2 -25 1 -37 -1z m455 -219 c12 -21
-6 -84 -24 -84 -17 0 -28 68 -13 86 15 18 26 18 37 -2z m-147 -22 c9 -10 31
-53 48 -96 31 -79 31 -80 15 -123 -9 -24 -21 -42 -27 -40 -9 3 -117 258 -117
278 0 15 62 1 81 -19z m329 19 c0 -19 -109 -276 -118 -279 -6 -2 -18 17 -27
41 -17 44 -17 45 14 118 46 111 55 121 119 128 6 0 12 -3 12 -8z"/>
</g>
</svg>
